# xmcd CD database file
#
# Track frame offsets:
#	150
#	5318
#	20853
#	34739
#	50240
#	66956
#	89315
#	107187
#	121425
#	134744
#	147342
#	163489
#	179055
#	207170
#
# Disc length: 2924 seconds
#
# Revision: 4
# Processed by: cddbd v1.5.2PL0 Copyright (c) Steve Scherf et al.
# Submitted via: CDex 1.70beta2
#
DISCID=de0b6a0e
DTITLE=Big and Rich - Comin' To Your City
DYEAR=2005
DGENRE=Country
TTITLE0=The Freak Parade
TTITLE1=Comin' To Your City
TTITLE2=Soul Shaker
TTITLE3=Never Mind Me
TTITLE4=Caught Up In The Moment
TTITLE5=Leap Of Faith
TTITLE6=I Pray For You
TTITLE7=Filthy Rich
TTITLE8=Jalapeno
TTITLE9=20 Margaritas
TTITLE10=Blow My Mind
TTITLE11=Slow Motion
TTITLE12=8th of November
TTITLE13=Our America  [Bonus Track]
EXTD=YEAR: 2005
EXTT0=
EXTT1=
EXTT2=
EXTT3=
EXTT4=
EXTT5=
EXTT6=
EXTT7=
EXTT8=
EXTT9=
EXTT10=
EXTT11=
EXTT12=
EXTT13=
PLAYORDER=
